<svg width="64" height="64" viewBox="0 0 64 64" fill="none" xmlns="http://www.w3.org/2000/svg">
  <defs>
    <linearGradient id="frame" x1="10" y1="10" x2="54" y2="54" gradientUnits="userSpaceOnUse">
      <stop stop-color="#F4B767" />
      <stop offset="1" stop-color="#C95025" />
    </linearGradient>
    <linearGradient id="chest" x1="18" y1="22" x2="38" y2="42" gradientUnits="userSpaceOnUse">
      <stop stop-color="#F4B767" />
      <stop offset="1" stop-color="#A0401D" />
    </linearGradient>
    <linearGradient id="wing" x1="28" y1="22" x2="49" y2="44" gradientUnits="userSpaceOnUse">
      <stop stop-color="#6E9D7A" />
      <stop offset="1" stop-color="#2D5A46" />
    </linearGradient>
    <linearGradient id="body" x1="19" y1="18" x2="45" y2="48" gradientUnits="userSpaceOnUse">
      <stop stop-color="#1C2A21" />
      <stop offset="1" stop-color="#0D1712" />
    </linearGradient>
  </defs>
  <rect x="4" y="4" width="56" height="56" rx="18" fill="#F7F5F0" />
  <path d="M15 36C15 24.9543 23.9543 16 35 16C39.9213 16 44.427 17.7797 47.9095 20.7311" stroke="url(#frame)" stroke-width="4.5" stroke-linecap="round" />
  <path d="M49 29C49 40.0457 40.0457 49 29 49C24.0787 49 19.573 47.2203 16.0905 44.2689" stroke="url(#frame)" stroke-width="4.5" stroke-linecap="round" />
  <path d="M18 40.6C22.8 39.1 25.9 36 28.2 31.9C30.3 28.2 33.1 24.8 38.2 23.4C43.4 22 47.6 24.3 49.6 28.8C51.6 33.5 49.6 38.6 45.1 41.2C40.8 43.7 35.7 44.1 30.6 43.4C25.8 42.8 21.9 42.4 18 40.6Z" fill="url(#body)" />
  <path d="M18.3 40.4C21.3 39.8 24.7 40.4 27.8 42.1C24.6 43.7 20.7 43.6 17.2 42.5C15.9 42.1 15.8 40.9 18.3 40.4Z" fill="#0B140F" />
  <path d="M22.2 38.8C25.8 36.5 27.8 33.4 29.6 29.9C30.9 27.4 33.4 24.9 36.8 23.8C38.1 29.2 36.3 35.8 31.1 40.5C27.8 40.5 24.9 40 22.2 38.8Z" fill="url(#chest)" />
  <path d="M31.5 28.4C35.4 25.1 40.3 24.9 44.3 27C46.8 28.3 47.9 31.6 46.4 34.2C44.2 38 39.4 39.2 34.4 38.5C32.6 35.3 31.7 31.9 31.5 28.4Z" fill="url(#wing)" opacity="0.96" />
  <path d="M45.7 25.9L51 24.7L47.2 28.6Z" fill="#F9E4BE" />
  <circle cx="41.4" cy="27.7" r="1.85" fill="#FFF8F1" />
  <path d="M18 45.3C24 43.9 31 44 36.8 46.2" stroke="rgba(246,179,96,0.68)" stroke-width="2.4" stroke-linecap="round" />
</svg>
